<svg width="24" height="24" viewBox="0 0 24 24" fill="none" xmlns="http://www.w3.org/2000/svg">
<path d="M11.5 1C14.284 1.00265 16.9531 2.10975 18.9217 4.07831C20.8903 6.04687 21.9974 8.71604 22 11.5C21.9974 14.284 20.8903 16.9531 18.9217 18.9217C16.9531 20.8903 14.284 21.9974 11.5 22C8.71604 21.9974 6.04686 20.8903 4.0783 18.9217C2.10974 16.9531 1.00265 14.284 1 11.5C1.00265 8.71604 2.10974 6.04687 4.0783 4.07831C6.04686 2.10975 8.71604 1.00265 11.5 1ZM11.5 0C8.45001 0 5.52494 1.2116 3.36827 3.36827C1.2116 5.52494 0 8.45001 0 11.5C0 14.55 1.2116 17.4751 3.36827 19.6317C5.52494 21.7884 8.45001 23 11.5 23C14.55 23 17.4751 21.7884 19.6317 19.6317C21.7884 17.4751 23 14.55 23 11.5C23 8.45001 21.7884 5.52494 19.6317 3.36827C17.4751 1.2116 14.55 0 11.5 0Z" fill="#666666"/>
<path d="M18.93 4.07983L14.33 5.13983L15.74 6.54983L13.29 8.99983H14V9.70983L16.45 7.25983L17.86 8.67983L18.93 4.07983Z" fill="#178FE6"/>
<path d="M9.71005 13.9998H9.00006V13.2998L6.55005 15.7498L5.14008 14.3298L4.07007 18.9298L8.67007 17.8698L7.26007 16.4498L9.71005 13.9998Z" fill="#178FE6"/>
<path d="M13 10H10V13H13V10Z" fill="#178FE6"/>
</svg>
